<svg xmlns="http://www.w3.org/2000/svg" viewBox="0 0 200 200">
  <defs>
    <clipPath id="r"><circle cx="100" cy="100" r="100"/></clipPath>
    <radialGradient id="glow" cx="50%" cy="42%" r="60%">
      <stop offset="0%" stop-color="#fdf3dd"/>
      <stop offset="100%" stop-color="#f1e6d4"/>
    </radialGradient>
  </defs>
  <g clip-path="url(#r)">
    <rect width="200" height="200" fill="url(#glow)"/>
    <!-- asas -->
    <path d="M62 108C30 84 26 52 46 44c16-6 26 18 30 44z" fill="#f6dfc4" opacity=".85"/>
    <path d="M138 108c32-24 36-56 16-64-16-6-26 18-30 44z" fill="#f6dfc4" opacity=".85"/>
    <path d="M66 112C46 100 40 78 52 72c10-5 18 12 20 32z" fill="#fce9d2" opacity=".9"/>
    <path d="M134 112c20-12 26-34 14-40-10-5-18 12-20 32z" fill="#fce9d2" opacity=".9"/>
    <!-- brilhos -->
    <path d="M38 60l2.2 5.8L46 68l-5.8 2.2L38 76l-2.2-5.8L30 68l5.8-2.2z" fill="#b08a44"/>
    <path d="M164 52l1.8 4.6 4.6 1.8-4.6 1.8-1.8 4.6-1.8-4.6-4.6-1.8 4.6-1.8z" fill="#c97a55"/>
    <path d="M158 116l1.4 3.6 3.6 1.4-3.6 1.4-1.4 3.6-1.4-3.6-3.6-1.4 3.6-1.4z" fill="#b08a44" opacity=".8"/>
    <!-- cabelo (fundo) + coques -->
    <circle cx="100" cy="84" r="44" fill="#5a3c28"/>
    <circle cx="63" cy="55" r="13" fill="#5a3c28"/>
    <circle cx="137" cy="55" r="13" fill="#5a3c28"/>
    <path d="M133 44l2 5.2 5.2 2-5.2 2-2 5.2-2-5.2-5.2-2 5.2-2z" fill="#e9c46a"/>
    <!-- pescoço -->
    <rect x="89" y="112" width="22" height="20" rx="8" fill="#c98a63"/>
    <!-- rosto -->
    <ellipse cx="100" cy="90" rx="33" ry="35" fill="#d69a72"/>
    <!-- franja -->
    <path d="M67 84c0-24 14-38 33-38s33 14 33 38c-4-12-9-18-13-20-3 5-12 7-20 7s-17-2-20-7c-4 2-9 8-13 20z" fill="#5a3c28"/>
    <!-- orelhas + brincos -->
    <circle cx="67" cy="92" r="6" fill="#d69a72"/>
    <circle cx="133" cy="92" r="6" fill="#d69a72"/>
    <circle cx="67" cy="100" r="2.4" fill="#b08a44"/>
    <circle cx="133" cy="100" r="2.4" fill="#b08a44"/>
    <!-- olhos grandes e simpáticos -->
    <ellipse cx="87" cy="92" rx="4.6" ry="5.6" fill="#2b2723"/>
    <ellipse cx="113" cy="92" rx="4.6" ry="5.6" fill="#2b2723"/>
    <circle cx="88.6" cy="90" r="1.7" fill="#fff"/>
    <circle cx="114.6" cy="90" r="1.7" fill="#fff"/>
    <path d="M80 83q7-4 13-1" stroke="#5a3c28" stroke-width="2.2" fill="none" stroke-linecap="round"/>
    <path d="M107 82q6-3 13 1" stroke="#5a3c28" stroke-width="2.2" fill="none" stroke-linecap="round"/>
    <!-- nariz + sorriso -->
    <path d="M100 96q-1.6 5 1 7" stroke="#b5744e" stroke-width="1.8" fill="none" stroke-linecap="round"/>
    <path d="M91 109q9 7 18 0" stroke="#a05a3a" stroke-width="2.4" fill="none" stroke-linecap="round"/>
    <!-- bochechas rosadas -->
    <circle cx="78" cy="102" r="5" fill="#eda283" opacity=".6"/>
    <circle cx="122" cy="102" r="5" fill="#eda283" opacity=".6"/>
    <!-- vestido sálvia -->
    <path d="M52 200c2-34 22-46 48-46s46 12 48 46z" fill="#7a9b6d"/>
    <path d="M92 146q8 8 16 0l-8 12z" fill="#c98a63"/>
    <path d="M100 168l1.8 4.6 4.6 1.8-4.6 1.8-1.8 4.6-1.8-4.6-4.6-1.8 4.6-1.8z" fill="#f5eeda"/>
  </g>
</svg>
