<svg xmlns="http://www.w3.org/2000/svg" viewBox="0 0 200 200">
  <defs>
    <clipPath id="r"><circle cx="100" cy="100" r="100"/></clipPath>
  </defs>
  <g clip-path="url(#r)">
    <rect width="200" height="200" fill="#f1e6d4"/>
    <circle cx="100" cy="86" r="48" fill="#3b2a21"/>
    <circle cx="140" cy="62" r="16" fill="#3b2a21"/>
    <rect x="87" y="116" width="26" height="26" rx="9" fill="#b5744e"/>
    <ellipse cx="100" cy="93" rx="34" ry="38" fill="#c98a63"/>
    <path d="M65 86c1-25 16-40 35-40s34 15 35 40c-5-13-10-19-14-21-3 5-14 8-24 8s-19-3-22-8c-4 3-8 9-10 21z" fill="#3b2a21"/>
    <circle cx="66" cy="96" r="6" fill="#c98a63"/>
    <circle cx="134" cy="96" r="6" fill="#c98a63"/>
    <circle cx="66" cy="105" r="2.6" fill="#b08a44"/>
    <circle cx="134" cy="105" r="2.6" fill="#b08a44"/>
    <path d="M81 88q6-4 13-1" stroke="#3b2a21" stroke-width="2.4" fill="none" stroke-linecap="round"/>
    <path d="M106 87q7-3 13 1" stroke="#3b2a21" stroke-width="2.4" fill="none" stroke-linecap="round"/>
    <circle cx="88" cy="96" r="2.8" fill="#2b2723"/>
    <circle cx="112" cy="96" r="2.8" fill="#2b2723"/>
    <path d="M100 99q-2 6 1 8" stroke="#a96b47" stroke-width="2" fill="none" stroke-linecap="round"/>
    <path d="M90 113q10 8 20 0" stroke="#8c4f34" stroke-width="2.6" fill="none" stroke-linecap="round"/>
    <circle cx="79" cy="106" r="4.5" fill="#e0906b" opacity=".45"/>
    <circle cx="121" cy="106" r="4.5" fill="#e0906b" opacity=".45"/>
    <path d="M50 200c2-36 23-48 50-48s48 12 50 48z" fill="#5f6f5b"/>
    <path d="M91 152q9 9 18 0l-9 14z" fill="#b5744e"/>
    <circle cx="100" cy="176" r="3" fill="#b08a44"/>
  </g>
</svg>
